<svg xmlns="http://www.w3.org/2000/svg" width="16" height="16" viewBox="0 0 16 16">
<style>

g {
         fill: #1b73e8
     }
 @media (prefers-color-scheme: dark) {
     g {
         fill: #fff
     }
 }
</style>
    <path fill="transparent" d="M0 0H84V40H0z" transform="translate(-36 -249) translate(0 237)"/>
    
                    <g style="margin-top=12" >
                        <path d="M4.058 0c-.023.006-.046.008-.07.006-.51 0-.994.362-1.37 1.017C2.244 1.678 2 2.613 2 3.65v12.255l.653-.236c.048-.02.101-.021.15-.006L3.74 16l.942-.42c.059-.026.126-.026.185 0l.89.414.89-.414c.06-.026.126-.026.185 0l.92.408.838-.455c.063-.034.137-.036.202-.006l.792.373V3.65c0-1.111.254-2.117.682-2.863.181-.317.403-.578.647-.787H4.058zm7.977.006c-.51 0-.995.362-1.37 1.017-.344.6-.553 1.448-.59 2.378H14c-.037-.93-.246-1.779-.59-2.378-.375-.655-.865-1.017-1.375-1.017zM3.578.905H9.04c.084-.001.161.049.203.131.042.083.042.185 0 .267-.042.083-.12.133-.203.132H3.624c-.127.014-.241-.092-.254-.239-.013-.146.08-.276.208-.291zm-.41 1.254h5.456c.083-.001.16.049.203.131.042.083.042.185 0 .267-.042.083-.12.133-.203.132h-5.41c-.128.014-.242-.093-.255-.239-.012-.146.08-.276.209-.291zM2.97 4.543H6.329c.084-.001.161.049.203.131.042.083.042.185 0 .267-.042.082-.12.133-.203.131H3.017c-.127.015-.241-.092-.254-.238-.013-.146.08-.277.208-.291zm4.752 0H8.538c.083-.001.16.049.202.131.042.083.042.185 0 .267-.042.082-.12.133-.202.131h-.77c-.127.015-.24-.092-.254-.238-.012-.146.08-.277.209-.291zM2.97 5.76H6.329c.084 0 .161.05.203.132.042.082.042.184 0 .266-.042.082-.12.132-.203.131H3.017c-.082.01-.163-.032-.212-.11-.048-.076-.057-.177-.023-.264.035-.086.106-.145.189-.155zm4.752 0H8.538c.083 0 .16.05.202.132.042.082.042.184 0 .266-.042.082-.12.132-.202.131h-.77c-.082.01-.163-.032-.211-.11-.048-.076-.057-.177-.023-.264.034-.086.106-.145.189-.155zM2.97 6.974H6.329c.084-.001.161.049.203.131.042.083.042.185 0 .267-.042.082-.12.133-.203.131H3.017c-.127.015-.241-.092-.254-.238-.013-.146.08-.277.208-.291zm4.752 0H8.538c.083-.001.16.049.202.131.042.083.042.185 0 .267-.042.082-.12.133-.202.131h-.77c-.127.015-.24-.092-.254-.238-.012-.146.08-.277.209-.291zm.028 3.087c.103-.016.203.04.246.136.043.096.018.21-.06.279l-1.093.946c.353.732.175 1.642-.48 2.159-.748.59-1.827.446-2.404-.32-.578-.765-.436-1.87.312-2.46.372-.294.825-.41 1.26-.355.4.051.774.26 1.058.585l1.046-.928c.032-.03.072-.051.115-.06v.018zm-2.52.864c-.24.016-.477.104-.682.266-.55.435-.656 1.235-.231 1.798.425.563 1.218.666 1.769.231.448-.354.596-.953.404-1.467l-1.029.911c-.092.083-.231.078-.317-.012l-.486-.497c-.059-.06-.082-.148-.06-.23.02-.082.084-.147.164-.169.08-.022.167.002.225.062l.336.343.919-.816c-.208-.235-.48-.371-.769-.408-.08-.01-.163-.017-.243-.012z" transform="translate(-36 -249) translate(0 237) translate(34 12)"/>
                    </g>
</svg>
